<?xml version="1.0" encoding="UTF-8" standalone="no"?>
<!-- Created with Inkscape (http://www.inkscape.org/) -->

<svg
   xmlns:dc="http://purl.org/dc/elements/1.1/"
   xmlns:cc="http://creativecommons.org/ns#"
   xmlns:rdf="http://www.w3.org/1999/02/22-rdf-syntax-ns#"
   xmlns:svg="http://www.w3.org/2000/svg"
   xmlns="http://www.w3.org/2000/svg"
   xmlns:sodipodi="http://sodipodi.sourceforge.net/DTD/sodipodi-0.dtd"
   xmlns:inkscape="http://www.inkscape.org/namespaces/inkscape"
   width="5.994mm"
   height="10.583332mm"
   viewBox="0 0 5.994 10.583332"
   version="1.1"
   id="svg862"
   inkscape:version="0.92.4 (5da689c313, 2019-01-14)"
   sodipodi:docname="logo.svg">
  <defs
     id="defs856" />
  <sodipodi:namedview
     id="base"
     pagecolor="#ffffff"
     bordercolor="#666666"
     borderopacity="1.0"
     inkscape:pageopacity="0.0"
     inkscape:pageshadow="2"
     inkscape:zoom="1.1867187"
     inkscape:cx="-133.03089"
     inkscape:cy="46.596429"
     inkscape:document-units="mm"
     inkscape:current-layer="layer1"
     showgrid="false"
     inkscape:window-width="1920"
     inkscape:window-height="1017"
     inkscape:window-x="-8"
     inkscape:window-y="-8"
     inkscape:window-maximized="1" />
  <metadata
     id="metadata859">
    <rdf:RDF>
      <cc:Work
         rdf:about="">
        <dc:format>image/svg+xml</dc:format>
        <dc:type
           rdf:resource="http://purl.org/dc/dcmitype/StillImage" />
        <dc:title></dc:title>
      </cc:Work>
    </rdf:RDF>
  </metadata>
  <g
     inkscape:label="Ebene 1"
     inkscape:groupmode="layer"
     id="layer1"
     transform="translate(-72.807258,-150.57864)">
    <g
       id="g1020"
       transform="matrix(0.01280811,-0.00610542,0.00610542,0.01280811,67.184356,154.03746)">
      <path
         d="m 663.36,292.92 c 0.18,0.71 7.86,25.61 7.86,54.04 -0.09,12.33 -1.32,24.65 -3.85,36.76 -14.59,70.79 -74.19,117.22 -142.17,133 -52.21,12.12 -108.46,10.36 -161.64,9.24 -28.95,-0.61 -60.3,-5.8 -87.02,8.42 8.83,-4.7 43.09,-22.88 53.03,-24.67 9.96,-1.76 289.92,11.57 310.48,-130.86 1.49,-10.31 1.88,-20.8 1.3,-31.22 -0.3,-5.21 -0.84,-10.4 -1.62,-15.52 -0.4,-2.56 -0.85,-5.09 -1.37,-7.58 -0.27,-1.23 -0.54,-2.47 -0.83,-3.66 l -0.45,-1.75 -0.23,-0.82 c -0.06,-0.22 -0.17,-0.59 -0.18,-0.56 z"
         id="path1000"
         inkscape:connector-curvature="0"
         style="fill:#badffd" />
      <path
         d="m 286.28,434.18 c 2.34,-7.25 5.37,-14.24 8.64,-21.1 3.27,-6.87 6.91,-13.57 10.77,-20.15 7.79,-13.12 16.71,-25.64 26.67,-37.44 10.01,-11.74 21.07,-22.79 33.45,-32.51 6.11,-4.95 12.69,-9.39 19.4,-13.65 6.86,-4.06 13.85,-7.97 21.29,-11.12 3.65,-1.7 7.49,-3.02 11.27,-4.46 l 1.43,-0.52 1.46,-0.45 2.92,-0.89 2.92,-0.88 c 0.97,-0.29 1.94,-0.61 2.94,-0.82 l 5.96,-1.38 c 0.97,-0.22 2.04,-0.48 2.93,-0.66 l 2.71,-0.54 10.86,-2.12 43.45,-8.64 c 14.5,-2.92 29,-5.91 43.57,-8.95 l 5.47,-1.12 c 1.82,-0.38 3.63,-0.81 5.46,-1.17 l 10.97,-2.3 22.09,-4.74 c -6.23,4.4 -12.82,8.17 -19.48,11.8 -6.68,3.59 -13.47,6.96 -20.35,10.12 -13.76,6.32 -27.86,11.84 -42.12,16.82 -14.26,5.03 -28.75,9.27 -43.34,13.15 l -10.97,2.77 -2.75,0.68 c -0.93,0.22 -1.66,0.45 -2.51,0.67 l -4.9,1.32 c -1.63,0.42 -3.23,1.04 -4.85,1.54 l -2.42,0.79 -1.21,0.39 -1.19,0.47 c -3.18,1.25 -6.39,2.36 -9.5,3.84 -1.57,0.7 -3.15,1.35 -4.71,2.08 l -4.63,2.31 -2.32,1.14 -2.28,1.26 -4.57,2.5 c -6,3.54 -11.98,7.19 -17.74,11.27 -11.63,8 -22.71,17.1 -33.51,26.71 -10.77,9.66 -21.15,19.96 -31.32,30.65 -10.16,10.73 -20.07,21.83 -29.96,33.33 z"
         id="path1002"
         inkscape:connector-curvature="0"
         style="fill:#badffd" />
      <path
         d="m 779.11,101.34 64.83,30.94 C 714.57,164.22 575.64,356.18 530.32,366.34 388.43,398.17 262.31,503.84 262.31,503.84 375.52,371.28 501,360.67 530.32,332.74 559.63,304.81 729.23,85.68 779.11,101.34 Z"
         id="path1004"
         inkscape:connector-curvature="0"
         style="fill:#226654" />
      <path
         d="m 689.49,400.53 c -12.76,-4.14 -24.22,-8.97 -34.52,-14.33 -30.47,-15.8 -50.73,-36.13 -64.21,-56.48 -8.4,-12.7 -14.16,-25.41 -18.1,-37.05 -0.35,-1.05 -0.7,-2.1 -1.03,-3.13 -2.37,-7.46 -4.09,-14.73 -5.32,-21.62 -3.97,-22.03 -2.97,-41.18 -2.1,-49.64 12.5,0.31 25.84,3.85 40.1,4.58 -0.03,0.18 -1.91,10.3 -0.12,27.51 0.88,8.54 2.67,18.34 6.05,28.56 2.19,6.64 4.87,12.96 8.03,18.94 8.54,16.19 20.61,29.94 36.13,41.2 10.61,7.7 22.82,14.23 36.63,19.57 4.58,21.07 -1.54,41.89 -1.54,41.89 z"
         id="path1006"
         inkscape:connector-curvature="0"
         style="fill:#40907a" />
      <path
         d="m 674.34,463.65 v 0 c -5.18,14.04 -11.75,26.46 -19.58,37.41 -7.67,-8.28 -21.47,-22.29 -42.51,-40.61 -14.73,-12.84 -33.02,-27.79 -55.24,-44.38 -15.82,-11.81 -28.91,-27.07 -39.06,-45.4 -3.28,-5.92 -6.26,-12.16 -8.92,-18.71 -7.65,-18.81 -12.73,-40.15 -15.07,-63.7 -0.19,-1.87 -0.36,-3.77 -0.51,-5.67 -2.4,-30.07 0.07,-56.38 1.91,-70.22 12.24,-0.16 25.6,0.14 40.29,0.89 -1.38,9.15 -4.5,34.31 -2.49,63.52 1.1,16.09 3.76,33.41 9.14,49.95 3.24,9.99 7.47,19.69 12.93,28.67 6.62,10.86 15.03,20.65 25.71,28.62 21.87,16.33 40.14,31.16 55.15,44.13 16.52,14.26 29.11,26.27 38.25,35.5 z"
         id="path1008"
         inkscape:connector-curvature="0"
         style="fill:#96ce58" />
      <path
         d="m 636.12,522.29 c -12.53,11.65 -27.1,20.9 -43.42,28.01 -9.81,-8.6 -27.3,-22.99 -56.38,-44.2 -10.97,-7.99 -23.58,-16.96 -38.06,-26.95 -30.92,-21.34 -52.2,-45.5 -67.08,-70.28 -4.88,-8.14 -9.08,-16.34 -12.69,-24.53 -10.25,-23.19 -15.88,-46.29 -19.48,-67.52 -2.33,-13.71 -3.82,-26.63 -5.16,-38.31 -1.86,-16.14 -3.63,-31.55 -6.89,-41.08 13.73,-8.15 28.6,-14.31 46.47,-18.48 5.65,15.23 7.75,33.43 10.09,53.85 1,8.69 2.04,17.72 3.4,26.98 3.2,21.82 8.19,44.84 18.63,67.28 3.26,7.02 7.07,13.98 11.51,20.84 v 0.01 c 11.54,17.77 27.41,34.78 49.6,50.09 24.92,17.19 44.66,31.55 60.22,43.38 28.04,21.29 42.52,34.36 49.24,40.91 z"
         id="path1010"
         inkscape:connector-curvature="0"
         style="fill:#f7c545" />
      <path
         d="m 536.84,565.83 v 0 l 3.71,-0.74 c -22.75,-13.55 -44.08,-29.65 -63.81,-48.15 -14.06,-13.16 -27.3,-27.55 -39.65,-43.09 -12.64,-15.9 -24.38,-33.02 -35.14,-51.22 -4.7,-7.95 -9.2,-16.1 -13.52,-24.45 -4.52,-8.76 -8.82,-17.73 -12.91,-26.9 -4.82,-10.82 -8.8,-20.91 -12.08,-30.22 -16.45,-46.78 -15.3,-73.81 -15.3,-73.81 0,0 -31.93,22.42 -37.97,40.07 0,0 -0.86,13.07 18.44,67.87 1.5,3.54 3.11,7.26 4.84,11.17 5.22,11.79 10.78,23.28 16.68,34.45 3.77,7.14 7.68,14.15 11.72,21.02 11.73,19.98 24.57,38.79 38.43,56.29 6.31,7.96 13.43,15.73 20.81,23.08 21.5,21.4 45.24,39.28 57.79,48.24 h 0.01 z"
         id="path1012"
         inkscape:connector-curvature="0"
         style="fill:#f19934" />
      <path
         d="m 381.96,567.74 c -22.71,0.42 -43.18,1.48 -61.64,3.03 -0.66,-14.05 -4.13,-29.79 -10.29,-46.87 -5.23,-14.54 -12.41,-30.03 -21.44,-46.27 -0.18,-0.31 -0.35,-0.63 -0.53,-0.95 -3.12,-5.57 -6.46,-11.23 -10.01,-16.97 -12.85,-20.74 -25.84,-38.12 -34.45,-49.02 0,0 16.93,-32.49 27.49,-45.27 0,0 12.68,21.29 28.16,47.94 5.97,10.28 12.4,21.4 18.78,32.52 2.59,4.52 5.17,9.03 7.72,13.49 16.46,28.92 31.12,55.38 34.54,63.75 0.01,0.02 0.02,0.04 0.02,0.06 6.53,15.98 16,30.95 21.65,44.56 z"
         id="path1014"
         inkscape:connector-curvature="0"
         style="fill:#95c5e5" />
      <path
         d="m 228.25,442.14 c 29.57,29.77 42.22,65.74 47.58,92.84 4.69,23.73 3.8,40.65 3.8,40.65 l -41.11,9.04 c 0,-0.77 17.74,-42.97 -28.36,-102.38 z"
         id="path1016"
         inkscape:connector-curvature="0"
         style="fill:#0877bd" />
      <polygon
         points="153.33,629.34 213.74,595.89 201.77,541.7 "
         id="polygon1018"
         style="fill:#095a98" />
    </g>
  </g>
</svg>
